<svg width="13" height="13" viewBox="0 0 13 13" fill="none" xmlns="http://www.w3.org/2000/svg">
<path d="M1.25176 10.8244C1.38272 10.8367 1.51481 10.823 1.64046 10.7841C1.76611 10.7452 1.88286 10.6819 1.98401 10.5978C2.08517 10.5138 2.16874 10.4105 2.22994 10.2941C2.29115 10.1777 2.32879 10.0503 2.3407 9.91935L2.85689 4.26957L11.2432 12.6559C11.4307 12.8434 11.6851 12.9487 11.9503 12.9487C12.2155 12.9487 12.4699 12.8434 12.6574 12.6559C12.8449 12.4683 12.9503 12.214 12.9503 11.9487C12.9503 11.6835 12.8449 11.4292 12.6574 11.2416L4.2711 2.85535L9.92089 2.33917C10.0518 2.32709 10.1791 2.28935 10.2954 2.2281C10.4118 2.16684 10.5149 2.08326 10.599 1.98215C10.683 1.88103 10.7463 1.76435 10.7853 1.63876C10.8242 1.51318 10.8381 1.38115 10.826 1.25022C10.8139 1.11929 10.7762 0.99202 10.7149 0.875676C10.6537 0.759332 10.5701 0.656192 10.469 0.572146C10.3678 0.4881 10.2512 0.424793 10.1256 0.385841C9.99999 0.346888 9.86797 0.333054 9.73704 0.345125L1.95886 1.05223L1.78916 1.09466L1.64774 1.13709C1.4207 1.23769 1.23922 1.41917 1.13862 1.6462L1.09619 1.78762L1.05377 1.95733L0.346659 9.7355C0.33442 9.86647 0.348136 9.99856 0.387024 10.1242C0.425912 10.2499 0.489206 10.3666 0.573281 10.4678C0.657357 10.5689 0.760562 10.6525 0.876986 10.7137C0.99341 10.7749 1.12076 10.8125 1.25176 10.8244Z" fill="#9FA5C0"/>
</svg>
